<svg xmlns="http://www.w3.org/2000/svg" width="33" height="40" viewBox="0 0 33 40" fill="none">
  <path fill-rule="evenodd" clip-rule="evenodd" d="M29.614 26.4767V28.7524C29.614 29.3604 29.1205 29.8539 28.5125 29.8539C27.9039 29.8539 27.411 29.3604 27.411 28.7524V28.6615C27.0767 28.9369 26.7325 29.2002 26.3783 29.4502V32.2811C26.3783 32.8891 25.8849 33.3826 25.2768 33.3826C24.6682 33.3826 24.1753 32.8891 24.1753 32.2811V30.7742C23.532 31.0992 22.8618 31.3751 22.1766 31.6191C22.1766 31.6279 22.1788 31.6356 22.1788 31.6444V34.863C22.1788 35.471 21.6859 35.9645 21.0773 35.9645C20.4693 35.9645 19.9758 35.471 19.9758 34.863V32.242C19.1497 32.4177 18.3032 32.5366 17.4385 32.5906V35.9469C17.4385 36.5549 16.945 37.0484 16.337 37.0484C15.729 37.0484 15.2355 36.5549 15.2355 35.9469V32.5884C14.3879 32.5344 13.5584 32.416 12.7477 32.2453V34.863C12.7477 35.471 12.2543 35.9645 11.6462 35.9645C11.0376 35.9645 10.5447 35.471 10.5447 34.863V31.6444C10.5447 31.6378 10.5464 31.6317 10.5464 31.6251C9.86124 31.3823 9.19097 31.1069 8.54824 30.7836V32.2816C8.54824 32.8897 8.05477 33.3831 7.44674 33.3831C6.83871 33.3831 6.34523 32.8897 6.34523 32.2816V29.4601C5.9911 29.2101 5.64687 28.9474 5.31257 28.6731V28.7535C5.31257 29.3615 4.81909 29.855 4.21106 29.855C3.60303 29.855 3.10955 29.3615 3.10955 28.7535V26.4993C1.78389 24.9456 0.717632 23.1634 0 21.2109C0.0115658 22.4176 0.0462632 23.5494 0.12447 24.4042C0.967123 32.6242 7.91212 39.0361 16.3546 39.0361C25.366 39.0361 32.6707 31.7309 32.6707 22.7195C32.6707 22.3532 32.6729 21.8597 32.674 21.298C31.9602 23.2063 30.9116 24.9506 29.614 26.4767Z" fill="#383F67"/>
  <path fill-rule="evenodd" clip-rule="evenodd" d="M16.3548 30.4297C24.7438 30.4297 31.5693 23.6042 31.5693 15.2151C31.5693 6.82549 24.7438 0 16.3548 0C7.96514 0 1.13965 6.82549 1.13965 15.2151C1.13965 23.6042 7.96458 30.4297 16.3548 30.4297ZM13.2628 6.80731C13.0045 6.80731 12.7429 6.82879 12.4852 6.87065C11.8832 6.96703 11.3181 6.56168 11.2201 5.9619C11.1221 5.36103 11.5291 4.79486 12.1288 4.69682C12.5044 4.63569 12.8856 4.6043 13.2628 4.6043C13.3157 4.6043 13.3664 4.61091 13.4187 4.61201C13.4539 4.60815 13.4886 4.60099 13.525 4.60099H21.6828C22.2913 4.60099 22.7843 5.09447 22.7843 5.7025C22.7843 6.31053 22.2913 6.80401 21.6828 6.80401H18.2995C18.9868 7.55799 19.488 8.46673 19.7441 9.46745H22.147C22.7556 9.46745 23.2485 9.96092 23.2485 10.569C23.2485 11.177 22.7556 11.6705 22.147 11.6705H19.8978C19.5998 14.2634 17.6622 16.3888 15.0985 17.0899L22.4615 24.454C22.8917 24.8841 22.8917 25.5814 22.4615 26.0115C22.2462 26.2269 21.9647 26.3343 21.6828 26.3343C21.4008 26.3343 21.1193 26.2269 20.904 26.0115L11.9206 17.0271C11.4905 16.597 11.4905 15.8997 11.9206 15.4696C12.1795 15.2113 12.5336 15.1116 12.8696 15.1628C12.9583 15.1435 13.0497 15.1314 13.1455 15.1364L13.2634 15.1375C15.4752 15.1375 17.312 13.635 17.67 11.6705H12.2863C11.6783 11.6705 11.1848 11.177 11.1848 10.569C11.1848 9.96092 11.6783 9.46745 12.2863 9.46745H17.4309C16.781 7.91377 15.1602 6.80731 13.2628 6.80731Z" fill="#B2BAE7"/>
</svg>