<svg width="160" height="123" viewBox="0 0 160 123" fill="none" xmlns="http://www.w3.org/2000/svg">
<path fill-rule="evenodd" clip-rule="evenodd" d="M85.211 43.5269C84.359 45.7182 83.1756 47.7657 81.702 49.5977C82.6202 50.5619 83.6285 51.4361 84.7131 52.2082C85.3219 52.6139 85.9544 52.9829 86.6073 53.3131C90.1666 55.0182 94.1401 55.6671 98.0569 55.1829C97.4178 53.1968 96.3993 51.3536 95.0579 49.7556C92.5095 46.7086 89.0629 44.5454 85.211 43.5755M48.7858 16.3902C49.2594 16.0502 49.7572 15.7345 50.255 15.431C52.9809 13.8024 56.0043 12.7338 59.1481 12.2877C62.292 11.8415 65.4933 12.0268 68.5647 12.8326C73.1383 14.0831 77.248 16.6401 80.3907 20.1905C81.0578 19.6478 81.7595 19.1489 82.4912 18.6971C85.7971 16.6154 89.6621 15.5983 93.5645 15.7831C96.1583 15.964 98.6653 16.7923 100.856 18.1922C103.048 19.5921 104.853 21.519 106.107 23.7966C107.839 26.8976 108.379 30.5246 107.625 33.9956C107.301 35.4072 106.676 36.732 105.791 37.8786C104.907 39.0251 103.784 39.9663 102.501 40.6372C100.162 41.8126 97.4688 42.0724 94.9486 41.3657C93.7056 41.0634 92.568 40.4294 91.6571 39.5313C90.7462 38.6332 90.0961 37.5047 89.7762 36.2661C89.4936 35.228 89.4919 34.1334 89.7714 33.0944C90.0509 32.0554 90.6015 31.1094 91.3668 30.3531C92.0265 29.7909 92.819 29.4065 93.669 29.2365C94.5189 29.0665 95.3983 29.1165 96.2235 29.3818L97.4377 29.7096L96.782 32.138L95.5678 31.8101C95.139 31.6502 94.6758 31.6053 94.2242 31.6798C93.7727 31.7544 93.3485 31.9458 92.9938 32.2351C92.5489 32.7017 92.2358 33.2779 92.0865 33.9051C91.9372 34.5322 91.957 35.1878 92.1439 35.8048C92.3599 36.6181 92.7942 37.3569 93.3999 37.9411C94.0055 38.5253 94.7594 38.9328 95.58 39.1194C97.5061 39.6639 99.5658 39.4735 101.359 38.5852C102.327 38.0732 103.172 37.3577 103.836 36.4878C104.501 35.618 104.969 34.6145 105.208 33.5464C105.83 30.6512 105.372 27.6285 103.921 25.0472C102.886 23.1175 101.381 21.4798 99.545 20.2851C97.7094 19.0904 95.6026 18.3772 93.4188 18.2114C90.0228 18.0498 86.6587 18.931 83.7782 20.7369C83.1402 21.1351 82.5278 21.5731 81.9448 22.0482C85.2698 26.2945 86.955 31.5958 86.6922 36.9825C86.5958 38.4034 86.3557 39.8109 85.9759 41.1835C90.2516 42.3068 94.0711 44.7343 96.9034 48.1286C98.5157 50.0752 99.7213 52.3253 100.449 54.7458C104.642 53.9039 108.499 51.8575 111.546 48.8571C113.555 46.8359 115.141 44.4342 116.21 41.7928C117.28 39.1513 117.812 36.3231 117.775 33.4736C117.581 23.9666 111.388 15.1031 103.715 9.88221C92.156 2.03866 78.3509 0.654508 65.2014 5.02552C60.9518 6.48253 52.2098 12.1406 48.7737 16.3416L48.7858 16.3902ZM83.5718 40.6736C83.9267 39.4042 84.1545 38.1027 84.2518 36.7882C84.3003 36.0605 84.3003 35.3304 84.2518 34.6027C83.9442 30.6695 82.5158 26.9067 80.1357 23.7602C78.7416 25.3104 77.654 27.1108 76.9303 29.0661C75.5708 32.7978 75.4179 36.8624 76.4932 40.6857C78.8344 40.3189 81.2185 40.3189 83.5597 40.6857L83.5718 40.6736ZM80.0629 47.7279C81.1606 46.2891 82.0667 44.7136 82.7583 43.0412C80.9647 42.8105 79.1489 42.8105 77.3553 43.0412C78.0418 44.7199 78.9482 46.3 80.0507 47.7401L80.0629 47.7279ZM57.8193 28.374C54.9926 29.2792 52.5954 31.1883 51.0806 33.7407C49.9473 35.609 49.3011 37.7319 49.2014 39.9148C49.1017 42.0977 49.5516 44.2707 50.51 46.2345C52.0654 49.2546 54.5052 51.7283 57.5036 53.3252C58.1623 53.6813 58.8437 53.9936 59.5434 54.2602C61.565 49.2556 65.3184 45.1445 70.1188 42.677C71.3834 42.0572 72.7049 41.5612 74.0649 41.1957C72.8877 36.919 73.0744 32.3816 74.5991 28.2162C75.4856 25.8494 76.8401 23.6856 78.5816 21.8539C75.7741 18.6463 72.0962 16.3223 67.994 15.1639C65.2382 14.4416 62.3661 14.2758 59.5455 14.6761C56.7249 15.0763 54.0124 16.0347 51.5663 17.4951C43.4313 22.4246 38.8539 32.223 38.2104 41.4749C37.1905 55.4015 42.8971 68.0531 53.2783 77.2323C56.6537 80.2191 65.9906 84.9787 71.2844 85.8286C70.7502 85.5858 70.2281 85.3308 69.7181 85.0515C66.9424 83.504 64.5033 81.4182 62.5436 78.9164C60.5838 76.4146 59.1428 73.547 58.3049 70.4815C57.108 65.8965 57.2683 61.0627 58.7663 56.5671C54.2573 54.8964 50.5281 51.6128 48.3002 47.3515C47.1618 45.0151 46.6276 42.4305 46.7464 39.8342C46.8651 37.2379 47.6332 34.7128 48.9801 32.4901C50.792 29.4153 53.6694 27.1125 57.0665 26.0185C58.4513 25.5938 59.9117 25.4737 61.3473 25.6666C62.7829 25.8594 64.1598 26.3605 65.3835 27.1356C67.5664 28.5772 69.1335 30.7806 69.7789 33.3157C70.1394 34.5379 70.1639 35.8347 69.8498 37.0697C69.5357 38.3046 68.8947 39.4322 67.994 40.3336C67.2286 41.1125 66.2691 41.6729 65.2146 41.9568C64.1602 42.2407 63.049 42.2378 61.996 41.9485C61.1734 41.6609 60.4392 41.1654 59.8647 40.5101C59.2903 39.8548 58.8952 39.062 58.7178 38.2088L58.4142 36.9946L60.8426 36.3754L61.1582 37.5896C61.2363 38.0394 61.4293 38.4614 61.7187 38.8146C62.008 39.1678 62.3838 39.4401 62.8095 39.6051C63.4366 39.7511 64.0908 39.7316 64.7081 39.5485C65.3254 39.3655 65.8845 39.0251 66.3306 38.5609C66.9248 37.9648 67.3451 37.2179 67.5462 36.4006C67.7473 35.5833 67.7216 34.7266 67.4719 33.9228C66.9882 31.9605 65.7831 30.2525 64.0965 29.139C63.1686 28.563 62.1263 28.1963 61.0423 28.0642C59.9582 27.9321 58.8583 28.0378 57.8193 28.374ZM78.3995 49.6342C76.9244 47.801 75.7371 45.7539 74.8784 43.5633C73.6241 43.8956 72.4044 44.3469 71.2359 44.911C70.5795 45.2329 69.9429 45.5938 69.3296 45.9917C66.0561 48.2103 63.486 51.3196 61.9232 54.9522C63.9599 55.3934 66.063 55.4346 68.1154 55.0737C72.0319 54.3922 75.632 52.488 78.3995 49.6342ZM77.1003 71.9871C79.2898 73.9839 82.1385 75.1035 85.1017 75.1318C87.2864 75.182 89.4487 74.6825 91.3899 73.679C93.3311 72.6755 94.9891 71.2002 96.2113 69.3887C98.057 66.5342 98.981 63.1816 98.8582 59.7846C98.8347 59.0359 98.7617 58.2896 98.6397 57.5506C93.2979 58.3034 87.8635 57.1096 83.329 54.1873C82.1486 53.3918 81.0505 52.4808 80.0507 51.4676C76.9448 54.6472 72.9185 56.7708 68.5404 57.5384C66.05 57.9709 63.4979 57.8965 61.0368 57.3199C59.6794 61.3696 59.5234 65.7258 60.5876 69.8623C61.3424 72.6097 62.6361 75.1796 64.3933 77.4224C66.1505 79.6653 68.3361 81.5363 70.823 82.9268C79.1523 87.4192 89.9341 86.5328 98.3483 82.5625C110.915 76.4916 118.989 65.212 121.782 51.6254C122.68 47.2058 122.134 36.7518 120.228 31.7373C120.228 32.3201 120.313 32.9515 120.325 33.4857C120.374 36.6603 119.789 39.8128 118.605 42.7587C117.421 45.7046 115.661 48.3846 113.428 50.6419C110.049 53.9742 105.777 56.2558 101.129 57.2106C101.276 58.0573 101.361 58.9135 101.384 59.7725C101.518 63.6779 100.45 67.5303 98.324 70.8093C96.8729 72.9669 94.9025 74.7248 92.594 75.9215C90.2856 77.1181 87.7133 77.715 85.1138 77.6572C81.5432 77.6146 78.1125 76.2622 75.4733 73.8569C74.4126 72.8713 73.5788 71.6671 73.0295 70.3274C72.4803 68.9878 72.2287 67.5448 72.2922 66.0983C72.4431 63.4876 73.5648 61.0277 75.4369 59.2018C76.3195 58.278 77.4352 57.6098 78.6663 57.2678C79.8973 56.9258 81.1979 56.9229 82.4305 57.2592C83.49 57.5329 84.4572 58.0846 85.2321 58.8573C86.0069 59.6301 86.5613 60.5957 86.8379 61.6545C86.9968 62.5094 86.9328 63.3908 86.6521 64.2138C86.3713 65.0368 85.8834 65.7736 85.2352 66.3533L84.361 67.2154L82.5641 65.382L83.4504 64.5078C83.7987 64.2159 84.0656 63.8389 84.2252 63.4134C84.3848 62.9879 84.4316 62.5284 84.361 62.0794C84.1779 61.4617 83.8341 60.9036 83.3649 60.462C82.8956 60.0205 82.3176 59.7113 81.6899 59.5661C80.877 59.3455 80.0192 59.3523 79.2099 59.5857C78.4006 59.8191 77.6709 60.2701 77.1003 60.8895C75.6686 62.2814 74.8035 64.1545 74.672 66.1469C74.6288 67.2382 74.8237 68.3259 75.243 69.3344C75.6623 70.3429 76.2961 71.248 77.1003 71.9871ZM35.4785 44.7168C35.5231 53.926 38.3968 62.8991 43.7106 70.4208C45.171 72.5254 46.8299 74.4852 48.6644 76.2731C49.2351 76.783 49.7693 77.4873 50.7528 78.3008C51.0685 78.5679 51.1899 78.5921 51.5056 78.8593C57.1042 83.6271 63.8152 86.9053 71.0173 88.3905C76.3718 89.6047 79.5165 89.3497 84.8346 89.1069C89.3952 88.5469 93.8497 87.3238 98.0569 85.4765C100.553 84.4236 102.927 83.1004 105.136 81.5304L111.838 75.9453L112.469 75.2532L113.793 73.7962L115.553 71.6349C118.19 68.1885 120.286 64.3604 121.77 60.2825C122.771 57.5688 123.519 54.7683 124.004 51.9168C124.561 48.6702 124.729 45.3684 124.502 42.082C124.109 35.3368 122.2 28.7669 118.916 22.8617L116.804 19.4256C116.415 18.8792 116.063 18.345 115.59 17.7743C115.116 17.2037 114.861 16.8273 114.375 16.2809L113.088 14.7753C110.904 12.3922 108.488 10.2325 105.876 8.32807L104.237 7.21103C103.15 6.47805 102.023 5.8052 100.862 5.19551C100.218 4.86768 99.7567 4.66127 99.1011 4.33345C95.9705 2.76768 92.6475 1.62057 89.2177 0.921626C79.7672 -1.01433 69.9453 0.117156 61.1825 4.15132C58.7758 5.29185 56.4689 6.63213 54.286 8.15808C53.6789 8.5709 53.254 8.95944 52.6955 9.37226C50.6695 10.9147 48.8025 12.6555 47.1224 14.5689C46.6853 15.0546 46.2725 15.4553 45.9082 15.9531C42.6075 19.9684 40.009 24.5127 38.2225 29.3939C37.9918 30.086 37.7612 30.681 37.579 31.3366C36.692 34.1514 36.086 37.0472 35.7699 39.9815L35.5878 43.624C35.5878 43.8547 35.5878 43.9518 35.5878 44.0975C35.5224 44.2978 35.4856 44.5062 35.4785 44.7168Z" fill="#F78D1E"/>
<path fill-rule="evenodd" clip-rule="evenodd" d="M152.244 120.383H148.602V106.906C151.989 106.906 154.236 106.469 156.312 108.691C158.74 111.289 158.57 120.383 152.196 120.383M146.477 122.387C151.783 122.387 156.955 123.273 159.25 117.833C160.646 114.543 160.136 108.994 157.344 106.748C154.551 104.502 150.642 104.915 146.477 104.915V122.387Z" fill="#F78D1E"/>
<path fill-rule="evenodd" clip-rule="evenodd" d="M80.5121 112.455H79.1401V106.772L80.9249 106.845C83.3532 107.064 83.6082 107.877 83.6082 110.16C83.6082 111.896 82.1876 112.455 80.5121 112.455ZM77.0638 122.387H79.1522V114.13C79.7836 114.264 79.8929 114.543 80.9978 116.024C81.532 116.741 81.9691 117.372 82.5033 118.076C83.5967 119.434 84.6063 120.857 85.5266 122.338H88.2706C87.0565 120.493 82.6005 115.053 82.0905 114.118C82.6502 114.095 83.1994 113.96 83.7053 113.719C84.2112 113.479 84.6632 113.139 85.0341 112.719C85.405 112.299 85.6872 111.809 85.8636 111.277C86.0401 110.746 86.1072 110.184 86.0608 109.626C86.0608 104.368 80.8278 104.866 77.0638 104.866V122.387Z" fill="#F78D1E"/>
<path fill-rule="evenodd" clip-rule="evenodd" d="M103.083 115.345L105.742 109.444L108.401 115.345H103.083ZM111.327 122.411H113.756L105.742 105L97.7166 122.387H100.145L102.1 117.652H109.385L111.327 122.411Z" fill="#F78D1E"/>
<path fill-rule="evenodd" clip-rule="evenodd" d="M125.424 104.914H127.828V119.909H133.462V122.362H127.828V122.386H125.424V104.914Z" fill="#F78D1E"/>
<path fill-rule="evenodd" clip-rule="evenodd" d="M56.0703 105V105.024H62.724V107.465H56.0703V111.411H62.724V113.851H56.0703V119.995H62.724V122.448H56.0703V122.46H53.6663V105H56.0703Z" fill="#F78D1E"/>
<path fill-rule="evenodd" clip-rule="evenodd" d="M30.7553 118.017L37.7246 104.6L39.9951 122.254L37.6032 122.546L36.4376 111.145L30.7553 122.194L25.5829 111.327L24.3687 122.461L21.9768 122.169L24.2473 104.527L30.7553 118.017Z" fill="#F78D1E"/>
<path fill-rule="evenodd" clip-rule="evenodd" d="M2.4162 105V105.024H9.05772V107.465H2.4162V111.411H9.05772V113.851H2.4162V119.995H9.05772V122.448H2.4162V122.46H0V105H2.4162Z" fill="#F78D1E"/>
</svg>
