<svg width="202" height="51" viewBox="0 0 202 51" fill="none" xmlns="http://www.w3.org/2000/svg">
<g filter="url(#filter0_d_8995_35022)">
<path fill-rule="evenodd" clip-rule="evenodd" d="M27.4373 20.9569C27.0358 22.012 26.4781 22.9978 25.7837 23.8799C26.2164 24.3441 26.6915 24.765 27.2027 25.1367C27.4896 25.3321 27.7877 25.5097 28.0954 25.6687C29.7727 26.4897 31.6453 26.8021 33.4912 26.569C33.19 25.6127 32.71 24.7253 32.0779 23.9559C30.8769 22.4888 29.2526 21.4473 27.4373 20.9803M10.2713 7.89139C10.4945 7.72771 10.7291 7.57571 10.9637 7.42957C12.2483 6.64547 13.6731 6.13097 15.1547 5.91616C16.6363 5.70135 18.145 5.79056 19.5925 6.17855C21.7479 6.78062 23.6846 8.01174 25.1657 9.72115C25.4801 9.45984 25.8108 9.21966 26.1556 9.00211C27.7136 7.99984 29.535 7.51013 31.3741 7.5991C32.5964 7.6862 33.778 8.08499 34.8105 8.75901C35.8431 9.43303 36.6938 10.3608 37.2849 11.4574C38.1012 12.9504 38.3556 14.6967 38.0001 16.3679C37.8478 17.0476 37.5531 17.6854 37.1362 18.2374C36.7193 18.7895 36.1903 19.2426 35.5855 19.5656C34.4833 20.1315 33.2141 20.2566 32.0264 19.9164C31.4406 19.7709 30.9045 19.4656 30.4752 19.0332C30.0459 18.6008 29.7395 18.0574 29.5888 17.4611C29.4556 16.9613 29.4548 16.4343 29.5865 15.934C29.7182 15.4338 29.9777 14.9783 30.3384 14.6142C30.6493 14.3435 31.0227 14.1584 31.4233 14.0765C31.8239 13.9947 32.2383 14.0188 32.6272 14.1465L33.1994 14.3043L32.8904 15.4735L32.3182 15.3157C32.1161 15.2387 31.8978 15.217 31.685 15.2529C31.4722 15.2888 31.2723 15.381 31.1051 15.5203C30.8955 15.7449 30.7479 16.0224 30.6775 16.3243C30.6072 16.6263 30.6165 16.9419 30.7046 17.239C30.8064 17.6306 31.0111 17.9862 31.2965 18.2675C31.5819 18.5488 31.9372 18.745 32.3239 18.8349C33.2316 19.097 34.2023 19.0053 35.0476 18.5777C35.5035 18.3312 35.9018 17.9866 36.2149 17.5678C36.528 17.149 36.7486 16.6659 36.8615 16.1516C37.1545 14.7577 36.9388 13.3023 36.2549 12.0595C35.7668 11.1304 35.0575 10.3419 34.1925 9.76667C33.3275 9.19146 32.3346 8.8481 31.3054 8.76827C29.705 8.69044 28.1196 9.11475 26.7621 9.98422C26.4614 10.1759 26.1729 10.3868 25.8981 10.6156C27.465 12.66 28.2592 15.2125 28.1354 17.806C28.0899 18.4901 27.9768 19.1678 27.7978 19.8287C29.8128 20.3695 31.6128 21.5383 32.9476 23.1725C33.7074 24.1097 34.2756 25.1931 34.6184 26.3585C36.5945 25.9532 38.412 24.9679 39.8484 23.5233C40.7951 22.5501 41.5423 21.3938 42.0464 20.122C42.5504 18.8502 42.8011 17.4885 42.7837 16.1166C42.6922 11.5392 39.774 7.27173 36.1577 4.758C30.7103 0.981558 24.2044 0.315127 18.0075 2.41964C16.0048 3.12115 11.8849 5.84533 10.2656 7.86801L10.2713 7.89139ZM26.6649 19.5832C26.8321 18.972 26.9395 18.3453 26.9853 17.7125C27.0082 17.3621 27.0082 17.0106 26.9853 16.6602C26.8403 14.7665 26.1672 12.9548 25.0455 11.4398C24.3885 12.1862 23.876 13.0531 23.5349 13.9945C22.8942 15.7912 22.8221 17.7482 23.3289 19.589C24.4323 19.4124 25.5558 19.4124 26.6591 19.589L26.6649 19.5832ZM25.0112 22.9796C25.5285 22.2869 25.9555 21.5283 26.2815 20.7231C25.4362 20.612 24.5805 20.612 23.7352 20.7231C24.0587 21.5314 24.4859 22.2921 25.0055 22.9855L25.0112 22.9796ZM14.5285 13.6613C13.1964 14.0971 12.0666 15.0163 11.3528 16.2452C10.8187 17.1447 10.5142 18.1668 10.4672 19.2178C10.4202 20.2688 10.6322 21.3151 11.0838 22.2606C11.8169 23.7147 12.9667 24.9057 14.3797 25.6746C14.6901 25.846 15.0113 25.9964 15.341 26.1247C16.2937 23.7151 18.0626 21.7358 20.3249 20.5477C20.9208 20.2493 21.5436 20.0105 22.1845 19.8345C21.6298 17.7755 21.7178 15.5908 22.4363 13.5853C22.8541 12.4457 23.4924 11.4039 24.3131 10.522C22.9901 8.97768 21.2568 7.85874 19.3235 7.30096C18.0248 6.95323 16.6713 6.87339 15.342 7.06611C14.0128 7.25882 12.7344 7.72023 11.5817 8.42337C7.74791 10.7968 5.59072 15.5144 5.28745 19.969C4.8068 26.6742 7.49615 32.7656 12.3885 37.1851C13.9792 38.6232 18.3794 40.9148 20.8742 41.324C20.6224 41.2071 20.3764 41.0843 20.136 40.9499C18.8279 40.2047 17.6785 39.2005 16.7549 37.996C15.8313 36.7914 15.1522 35.4108 14.7574 33.9348C14.1933 31.7273 14.2688 29.3999 14.9748 27.2354C12.8498 26.431 11.0924 24.8501 10.0424 22.7984C9.50596 21.6735 9.2542 20.429 9.31018 19.179C9.36616 17.929 9.7281 16.7132 10.3629 15.643C11.2168 14.1626 12.5728 13.0539 14.1737 12.5272C14.8264 12.3227 15.5146 12.2649 16.1911 12.3577C16.8677 12.4505 17.5166 12.6918 18.0933 13.065C19.122 13.7591 19.8605 14.82 20.1647 16.0406C20.3346 16.629 20.3461 17.2534 20.1981 17.848C20.0501 18.4426 19.748 18.9854 19.3235 19.4195C18.9628 19.7945 18.5106 20.0643 18.0137 20.201C17.5168 20.3377 16.9931 20.3363 16.4969 20.197C16.1092 20.0585 15.7632 19.8199 15.4925 19.5044C15.2217 19.1889 15.0355 18.8072 14.9519 18.3964L14.8089 17.8119L15.9533 17.5137L16.102 18.0983C16.1388 18.3149 16.2298 18.5181 16.3662 18.6881C16.5025 18.8582 16.6796 18.9893 16.8802 19.0687C17.1758 19.139 17.4841 19.1296 17.775 19.0415C18.0659 18.9533 18.3294 18.7895 18.5396 18.566C18.8196 18.279 19.0177 17.9193 19.1125 17.5258C19.2073 17.1323 19.1952 16.7198 19.0775 16.3328C18.8495 15.3881 18.2816 14.5657 17.4868 14.0296C17.0495 13.7523 16.5583 13.5757 16.0474 13.5121C15.5365 13.4485 15.0182 13.4994 14.5285 13.6613ZM24.2273 23.8974C23.5321 23.0148 22.9726 22.0292 22.5679 20.9745C21.9768 21.1345 21.402 21.3518 20.8513 21.6234C20.542 21.7784 20.242 21.9521 19.9529 22.1437C18.4102 23.2119 17.199 24.7089 16.4625 26.4579C17.4224 26.6703 18.4135 26.6902 19.3807 26.5164C21.2265 26.1883 22.9231 25.2715 24.2273 23.8974ZM23.615 34.6597C24.6469 35.6211 25.9894 36.1602 27.3858 36.1738C28.4154 36.198 29.4344 35.9575 30.3493 35.4743C31.2641 34.9911 32.0454 34.2808 32.6215 33.4087C33.4912 32.0343 33.9267 30.4201 33.8689 28.7846C33.8578 28.4241 33.8234 28.0648 33.7659 27.7089C31.2484 28.0714 28.6874 27.4966 26.5504 26.0896C25.9941 25.7066 25.4766 25.268 25.0055 24.7801C23.5417 26.311 21.6443 27.3335 19.581 27.7031C18.4074 27.9113 17.2046 27.8755 16.0448 27.5979C15.4051 29.5477 15.3316 31.6451 15.8331 33.6367C16.1888 34.9595 16.7985 36.1968 17.6266 37.2767C18.4547 38.3565 19.4847 39.2574 20.6568 39.9268C24.582 42.0898 29.6632 41.6631 33.6285 39.7515C39.5508 36.8285 43.3559 31.3977 44.672 24.8561C45.0954 22.7282 44.8379 17.6949 43.9396 15.2806C43.9396 15.5612 43.9796 15.8652 43.9854 16.1224C44.0085 17.6509 43.733 19.1687 43.175 20.5871C42.6169 22.0054 41.7875 23.2958 40.7353 24.3826C39.1429 25.987 37.1296 27.0855 34.9389 27.5453C35.0081 27.9529 35.0482 28.3651 35.059 28.7787C35.1222 30.6591 34.6188 32.5139 33.6171 34.0926C32.9332 35.1314 32.0046 35.9778 30.9167 36.554C29.8289 37.1301 28.6166 37.4175 27.3915 37.3897C25.7088 37.3692 24.0921 36.7181 22.8483 35.56C22.3484 35.0854 21.9555 34.5056 21.6966 33.8606C21.4378 33.2156 21.3192 32.5209 21.3491 31.8244C21.4202 30.5675 21.9489 29.3831 22.8311 28.504C23.247 28.0592 23.7729 27.7374 24.353 27.5728C24.9332 27.4081 25.5461 27.4067 26.127 27.5686C26.6263 27.7004 27.0821 27.9661 27.4473 28.3381C27.8124 28.7101 28.0737 29.1751 28.2041 29.6848C28.2789 30.0965 28.2488 30.5208 28.1165 30.9171C27.9842 31.3133 27.7542 31.6681 27.4488 31.9472L27.0368 32.3623L26.1899 31.4795L26.6076 31.0586C26.7718 30.9181 26.8976 30.7366 26.9728 30.5317C27.048 30.3269 27.07 30.1056 27.0368 29.8895C26.9505 29.592 26.7885 29.3233 26.5673 29.1107C26.3462 28.8981 26.0738 28.7493 25.7779 28.6794C25.3949 28.5732 24.9906 28.5764 24.6092 28.6888C24.2278 28.8011 23.8839 29.0183 23.615 29.3166C22.9403 29.9867 22.5326 30.8885 22.4706 31.8478C22.4503 32.3733 22.5421 32.8969 22.7397 33.3825C22.9374 33.8681 23.236 34.3039 23.615 34.6597ZM4 21.5298C4.02099 25.9638 5.3753 30.2841 7.87952 33.9056C8.56776 34.9189 9.34953 35.8625 10.2141 36.7233C10.483 36.9688 10.7348 37.3079 11.1983 37.6996C11.3471 37.8282 11.4043 37.8399 11.553 37.9685C14.1915 40.264 17.3542 41.8424 20.7483 42.5575C23.2717 43.1421 24.7537 43.0193 27.2599 42.9024C29.4092 42.6328 31.5085 42.0439 33.4912 41.1545C34.6678 40.6475 35.7864 40.0104 36.8271 39.2546L39.9857 36.5654L40.2832 36.2322L40.9069 35.5307L41.7366 34.4902C42.9793 32.8308 43.9672 30.9877 44.6663 29.0243C45.1382 27.7177 45.4906 26.3694 45.7191 24.9964C45.982 23.4333 46.0607 21.8436 45.9537 20.2613C45.7687 17.0136 44.869 13.8505 43.3216 11.0072L42.326 9.35286C42.1429 9.0898 41.9769 8.83258 41.7538 8.55782C41.5306 8.28307 41.4105 8.10184 41.1816 7.83878L40.575 7.11389C39.5457 5.96649 38.4072 4.92664 37.1762 4.00973L36.4037 3.4719C35.8912 3.11899 35.3602 2.79504 34.813 2.50149C34.5097 2.34365 34.2923 2.24427 33.9833 2.08643C32.508 1.33256 30.942 0.780256 29.3256 0.443736C24.8718 -0.488372 20.2431 0.0564072 16.1135 1.99874C14.9793 2.54787 13.8921 3.19318 12.8634 3.92788C12.5773 4.12664 12.377 4.31371 12.1138 4.51247C11.159 5.25511 10.2792 6.09328 9.4874 7.01451C9.28141 7.24834 9.08686 7.44126 8.9152 7.68094C7.35968 9.61423 6.13509 11.8022 5.29317 14.1523C5.18445 14.4855 5.07574 14.772 4.98991 15.0877C4.57186 16.4429 4.28627 17.8372 4.13733 19.2499L4.0515 21.0037C4.0515 21.1148 4.0515 21.1615 4.0515 21.2317C4.02066 21.3281 4.00332 21.4285 4 21.5298Z" fill="#F78D1E"/>
<path fill-rule="evenodd" clip-rule="evenodd" d="M189.01 13.6455H185.875V2.0478C188.79 2.0478 190.723 1.67165 192.51 3.58371C194.6 5.81967 194.454 13.6455 188.968 13.6455M184.047 15.3695C188.613 15.3695 193.064 16.1323 195.039 11.4514C196.24 8.61986 195.801 3.84492 193.398 1.91196C190.995 -0.0209945 187.631 0.334258 184.047 0.334258V15.3695Z" fill="#F78D1E"/>
<path fill-rule="evenodd" clip-rule="evenodd" d="M127.284 6.82238H126.103V1.93251L127.639 1.9952C129.729 2.18327 129.948 2.88332 129.948 4.84762C129.948 6.34175 128.726 6.82238 127.284 6.82238ZM124.316 15.3692H126.114V8.26426C126.657 8.37919 126.751 8.6195 127.702 9.89421C128.161 10.5107 128.538 11.054 128.997 11.66C129.938 12.8285 130.807 14.0532 131.599 15.3274H133.96C132.915 13.7392 129.081 9.05833 128.642 8.2538C129.124 8.23431 129.596 8.1176 130.032 7.91067C130.467 7.70375 130.856 7.41089 131.175 7.04973C131.494 6.68857 131.737 6.26657 131.889 5.80912C132.041 5.35168 132.099 4.86823 132.059 4.38789C132.059 -0.136277 127.555 0.292111 124.316 0.292111V15.3692Z" fill="#F78D1E"/>
<path fill-rule="evenodd" clip-rule="evenodd" d="M146.708 9.3083L148.996 4.23037L151.284 9.3083H146.708ZM153.803 15.3893H155.892L148.996 0.40625L142.09 15.3684H144.18L145.862 11.2935H152.131L153.803 15.3893Z" fill="#F78D1E"/>
<path fill-rule="evenodd" clip-rule="evenodd" d="M165.93 0.335938H167.998V13.2397H172.847V15.3503H167.998V15.3712H165.93V0.335938Z" fill="#F78D1E"/>
<path fill-rule="evenodd" clip-rule="evenodd" d="M106.248 0.40625V0.427143H111.974V2.52728H106.248V5.92302H111.974V8.02315H106.248V13.3101H111.974V15.4206H106.248V15.4311H104.18V0.40625H106.248Z" fill="#F78D1E"/>
<path fill-rule="evenodd" clip-rule="evenodd" d="M84.4683 11.6082L90.4657 0.062696L92.4195 15.2547L90.3612 15.5055L89.3581 5.6944L84.4683 15.2025L80.0172 5.85112L78.9724 15.4323L76.9141 15.1816L78.8679 0L84.4683 11.6082Z" fill="#F78D1E"/>
<path fill-rule="evenodd" clip-rule="evenodd" d="M60.0792 0.40625V0.427143H65.7945V2.52728H60.0792V5.92302H65.7945V8.02315H60.0792V13.3101H65.7945V15.4206H60.0792V15.4311H58V0.40625H60.0792Z" fill="#F78D1E"/>
<rect x="58.3438" y="23" width="139" height="20" rx="3" fill="#3D3D3D"/>
<path d="M67.0699 29.98V29.05H71.9199V29.98H70.0699V36H68.9299V29.98H67.0699ZM78.4144 31.13C78.4144 30.43 78.0144 29.98 77.1244 29.98H75.8644V32.31H77.1244C78.0144 32.31 78.4144 31.82 78.4144 31.13ZM74.7244 29.05H77.1244C78.7744 29.05 79.5844 30 79.5844 31.13C79.5844 31.95 79.1444 32.83 77.9744 33.12L79.6944 36H78.3344L76.7344 33.22H75.8644V36H74.7244V29.05ZM87.3828 36L86.8828 34.58H83.9728L83.4728 36H82.2828L84.7728 29.04H86.0928L88.5828 36H87.3828ZM86.5628 33.65L85.4328 30.42L84.2928 33.65H86.5628ZM94.0354 34.83L96.1054 29.05H97.3054L94.6954 36H93.3754L90.7554 29.05H91.9754L94.0354 34.83ZM103.749 29.04V29.97H101.049V32.01H103.449V32.94H101.049V35.07H103.749V36H99.9088V29.04H103.749ZM106.803 29.05H107.943V35.08H110.293V36H106.803V29.05ZM121.564 30.6H120.424C120.444 30.09 120.154 29.82 119.724 29.82C119.274 29.82 118.984 30.12 118.984 30.49C118.984 30.87 119.194 31.18 119.684 31.71L121.524 33.54L122.234 32.37H123.464L122.564 33.91C122.484 34.05 122.394 34.19 122.314 34.32L124.004 36H122.514L121.654 35.14C120.984 35.81 120.214 36.13 119.244 36.13C117.744 36.13 116.744 35.3 116.744 34C116.744 33.06 117.274 32.27 118.374 31.82C117.984 31.35 117.844 30.98 117.844 30.49C117.844 29.58 118.584 28.89 119.774 28.89C120.984 28.89 121.634 29.65 121.564 30.6ZM119.244 35.16C119.894 35.16 120.424 34.9 120.904 34.39L119.064 32.54C118.254 32.86 117.884 33.34 117.884 33.96C117.884 34.63 118.424 35.16 119.244 35.16ZM134.489 29.04V29.97H131.789V32.01H134.189V32.94H131.789V35.07H134.489V36H130.649V29.04H134.489ZM141.613 36L140.043 33.48L138.573 36H137.303L139.463 32.53L137.293 29.05H138.573L140.153 31.59L141.633 29.05H142.903L140.733 32.53L142.893 36H141.613ZM146.935 32.25H148.195C149.085 32.25 149.485 31.82 149.485 31.12C149.485 30.4 149.085 29.98 148.195 29.98H146.935V32.25ZM150.655 31.12C150.655 32.11 150.005 33.18 148.195 33.18H146.935V36H145.795V29.05H148.195C149.845 29.05 150.655 29.99 150.655 31.12ZM157.232 29.04V29.97H154.532V32.01H156.932V32.94H154.532V35.07H157.232V36H153.392V29.04H157.232ZM164.856 29.04H165.996V36H164.856L161.426 30.81V36H160.286V29.04H161.426L164.856 34.22V29.04ZM173.833 34.03C173.833 35.07 172.983 36.07 171.433 36.07C170.043 36.07 168.973 35.31 168.973 34.08H170.193C170.243 34.65 170.643 35.11 171.433 35.11C172.233 35.11 172.683 34.68 172.683 34.09C172.683 32.41 168.993 33.5 168.993 30.94C168.993 29.72 169.963 28.96 171.383 28.96C172.713 28.96 173.653 29.66 173.753 30.85H172.493C172.453 30.38 172.043 29.95 171.323 29.93C170.663 29.91 170.153 30.23 170.153 30.9C170.153 32.47 173.833 31.49 173.833 34.03ZM180.668 29.04V29.97H177.968V32.01H180.368V32.94H177.968V35.07H180.668V36H176.828V29.04H180.668ZM188.412 34.03C188.412 35.07 187.562 36.07 186.012 36.07C184.622 36.07 183.552 35.31 183.552 34.08H184.772C184.822 34.65 185.222 35.11 186.012 35.11C186.812 35.11 187.262 34.68 187.262 34.09C187.262 32.41 183.572 33.5 183.572 30.94C183.572 29.72 184.542 28.96 185.962 28.96C187.292 28.96 188.232 29.66 188.332 30.85H187.072C187.032 30.38 186.622 29.95 185.902 29.93C185.242 29.91 184.732 30.23 184.732 30.9C184.732 32.47 188.412 31.49 188.412 34.03Z" fill="white"/>
</g>
<defs>
<filter id="filter0_d_8995_35022" x="0" y="0" width="201.344" height="51" filterUnits="userSpaceOnUse" color-interpolation-filters="sRGB">
<feFlood flood-opacity="0" result="BackgroundImageFix"/>
<feColorMatrix in="SourceAlpha" type="matrix" values="0 0 0 0 0 0 0 0 0 0 0 0 0 0 0 0 0 0 127 0" result="hardAlpha"/>
<feOffset dy="4"/>
<feGaussianBlur stdDeviation="2"/>
<feComposite in2="hardAlpha" operator="out"/>
<feColorMatrix type="matrix" values="0 0 0 0 0 0 0 0 0 0 0 0 0 0 0 0 0 0 0.25 0"/>
<feBlend mode="normal" in2="BackgroundImageFix" result="effect1_dropShadow_8995_35022"/>
<feBlend mode="normal" in="SourceGraphic" in2="effect1_dropShadow_8995_35022" result="shape"/>
</filter>
</defs>
</svg>
